<?xml version="1.0" encoding="UTF-8"?>
<svg xmlns="http://www.w3.org/2000/svg" xmlns:xlink="http://www.w3.org/1999/xlink" width="60px" height="60px" viewBox="0 0 60 60" version="1.1">
<g id="surface1">
<path style=" stroke:none;fill-rule:nonzero;fill:rgb(25.882354%,30.19608%,90.588236%);fill-opacity:1;" d="M 0 30 L 0 60 L 60 60 L 60 0 L 0 0 Z M 30.933594 11.101562 C 30.980469 11.152344 31.085938 11.199219 31.167969 11.199219 C 31.246094 11.199219 31.351562 11.246094 31.398438 11.300781 C 31.445312 11.351562 31.539062 11.398438 31.605469 11.398438 C 31.679688 11.398438 31.734375 11.433594 31.734375 11.464844 C 31.734375 11.507812 31.808594 11.566406 31.90625 11.601562 C 32.113281 11.679688 33.199219 12.726562 33.199219 12.851562 C 33.199219 12.898438 33.246094 12.953125 33.300781 12.972656 C 33.351562 13 33.398438 13.054688 33.398438 13.105469 C 33.398438 13.152344 33.441406 13.21875 33.488281 13.246094 C 33.578125 13.308594 33.699219 13.492188 33.800781 13.714844 C 33.832031 13.800781 33.894531 13.867188 33.933594 13.867188 C 33.964844 13.867188 34 13.941406 34 14.027344 C 34 14.113281 34.046875 14.199219 34.101562 14.226562 C 34.152344 14.246094 34.199219 14.332031 34.199219 14.425781 C 34.199219 14.511719 34.246094 14.601562 34.300781 14.625 C 34.351562 14.648438 34.398438 14.71875 34.398438 14.785156 C 34.398438 14.859375 34.445312 14.953125 34.5 15 C 34.554688 15.046875 34.601562 15.152344 34.601562 15.234375 C 34.601562 15.3125 34.648438 15.421875 34.699219 15.464844 C 34.753906 15.511719 34.800781 15.621094 34.800781 15.714844 C 34.800781 15.800781 34.847656 15.886719 34.898438 15.90625 C 34.960938 15.933594 35 16.035156 35 16.171875 C 35 16.320312 35.039062 16.421875 35.101562 16.441406 C 35.160156 16.464844 35.199219 16.566406 35.199219 16.699219 C 35.199219 16.820312 35.246094 16.953125 35.300781 17 C 35.359375 17.046875 35.398438 17.191406 35.398438 17.347656 C 35.398438 17.511719 35.433594 17.621094 35.5 17.640625 C 35.566406 17.667969 35.601562 17.773438 35.601562 17.964844 C 35.601562 18.140625 35.640625 18.28125 35.699219 18.332031 C 35.761719 18.378906 35.800781 18.527344 35.800781 18.699219 C 35.800781 18.875 35.839844 19.019531 35.898438 19.066406 C 35.964844 19.121094 36 19.273438 36 19.511719 C 36 19.765625 36.027344 19.878906 36.101562 19.90625 C 36.171875 19.941406 36.199219 20.054688 36.199219 20.359375 C 36.207031 20.613281 36.238281 20.8125 36.300781 20.894531 C 36.359375 20.972656 36.398438 21.179688 36.398438 21.425781 C 36.40625 21.679688 36.441406 21.878906 36.5 21.960938 C 36.566406 22.054688 36.601562 22.261719 36.601562 22.613281 C 36.601562 23.332031 36.671875 23.398438 37.425781 23.398438 C 37.839844 23.398438 38.007812 23.425781 38.066406 23.5 C 38.125 23.574219 38.28125 23.601562 38.601562 23.601562 C 38.921875 23.601562 39.074219 23.625 39.132812 23.699219 C 39.1875 23.765625 39.339844 23.800781 39.601562 23.800781 C 39.859375 23.800781 40.011719 23.832031 40.066406 23.898438 C 40.121094 23.964844 40.265625 24 40.5 24 C 40.734375 24 40.878906 24.035156 40.933594 24.101562 C 40.980469 24.160156 41.125 24.199219 41.300781 24.199219 C 41.472656 24.199219 41.621094 24.238281 41.667969 24.300781 C 41.71875 24.359375 41.859375 24.398438 42.035156 24.398438 C 42.226562 24.398438 42.332031 24.433594 42.359375 24.5 C 42.378906 24.566406 42.488281 24.601562 42.652344 24.601562 C 42.808594 24.601562 42.953125 24.640625 43 24.699219 C 43.046875 24.753906 43.179688 24.800781 43.300781 24.800781 C 43.433594 24.800781 43.535156 24.839844 43.558594 24.898438 C 43.578125 24.960938 43.679688 25 43.785156 25 C 43.894531 25 44.019531 25.046875 44.066406 25.101562 C 44.113281 25.152344 44.234375 25.199219 44.332031 25.199219 C 44.441406 25.199219 44.535156 25.246094 44.558594 25.300781 C 44.578125 25.351562 44.667969 25.398438 44.753906 25.398438 C 44.847656 25.398438 44.953125 25.445312 45 25.5 C 45.046875 25.554688 45.152344 25.601562 45.234375 25.601562 C 45.320312 25.601562 45.398438 25.648438 45.425781 25.699219 C 45.472656 25.820312 45.738281 25.832031 45.851562 25.71875 C 45.914062 25.660156 45.953125 25.660156 46.011719 25.71875 C 46.074219 25.78125 46.058594 25.800781 45.945312 25.800781 C 45.859375 25.800781 45.800781 25.839844 45.800781 25.898438 C 45.800781 25.960938 45.859375 26 45.964844 26 C 46.058594 26 46.132812 26.035156 46.132812 26.066406 C 46.132812 26.105469 46.199219 26.167969 46.285156 26.199219 C 46.507812 26.300781 46.691406 26.421875 46.753906 26.511719 C 46.78125 26.558594 46.847656 26.601562 46.894531 26.601562 C 46.945312 26.601562 47 26.648438 47.027344 26.699219 C 47.046875 26.753906 47.101562 26.800781 47.152344 26.800781 C 47.265625 26.800781 48.398438 27.972656 48.398438 28.09375 C 48.398438 28.148438 48.445312 28.199219 48.5 28.226562 C 48.554688 28.246094 48.601562 28.320312 48.601562 28.386719 C 48.601562 28.460938 48.648438 28.554688 48.699219 28.601562 C 48.753906 28.648438 48.800781 28.765625 48.800781 28.867188 C 48.800781 28.972656 48.847656 29.066406 48.898438 29.09375 C 48.980469 29.121094 49 29.292969 49 30.054688 C 49 30.800781 48.980469 31 48.898438 31.066406 C 48.847656 31.113281 48.800781 31.21875 48.800781 31.300781 C 48.800781 31.378906 48.753906 31.488281 48.699219 31.535156 C 48.648438 31.578125 48.601562 31.671875 48.601562 31.738281 C 48.601562 31.8125 48.566406 31.867188 48.535156 31.867188 C 48.492188 31.867188 48.433594 31.941406 48.398438 32.035156 C 48.320312 32.246094 47.28125 33.332031 47.152344 33.332031 C 47.105469 33.332031 47.046875 33.378906 47.027344 33.433594 C 47 33.488281 46.945312 33.535156 46.894531 33.535156 C 46.847656 33.535156 46.78125 33.574219 46.753906 33.613281 C 46.691406 33.714844 46.507812 33.832031 46.285156 33.933594 C 46.199219 33.964844 46.132812 34.027344 46.132812 34.066406 C 46.132812 34.101562 46.058594 34.132812 45.972656 34.132812 C 45.886719 34.132812 45.800781 34.179688 45.773438 34.234375 C 45.753906 34.285156 45.679688 34.332031 45.613281 34.332031 C 45.539062 34.332031 45.445312 34.378906 45.398438 34.433594 C 45.351562 34.488281 45.265625 34.535156 45.199219 34.535156 C 45.132812 34.535156 45.046875 34.578125 45 34.632812 C 44.953125 34.6875 44.847656 34.734375 44.753906 34.734375 C 44.667969 34.734375 44.578125 34.78125 44.558594 34.832031 C 44.535156 34.894531 44.433594 34.933594 44.328125 34.933594 C 44.214844 34.933594 44.113281 34.972656 44.09375 35.035156 C 44.066406 35.09375 43.964844 35.132812 43.828125 35.132812 C 43.679688 35.132812 43.578125 35.171875 43.558594 35.234375 C 43.535156 35.292969 43.433594 35.332031 43.300781 35.332031 C 43.179688 35.332031 43.046875 35.378906 43 35.433594 C 42.953125 35.492188 42.808594 35.535156 42.652344 35.535156 C 42.488281 35.535156 42.378906 35.566406 42.359375 35.632812 C 42.332031 35.699219 42.226562 35.734375 42.035156 35.734375 C 41.859375 35.734375 41.71875 35.773438 41.667969 35.832031 C 41.621094 35.894531 41.472656 35.933594 41.300781 35.933594 C 41.125 35.933594 40.980469 35.972656 40.933594 36.035156 C 40.878906 36.101562 40.726562 36.132812 40.488281 36.132812 C 40.234375 36.132812 40.121094 36.160156 40.09375 36.234375 C 40.058594 36.308594 39.945312 36.332031 39.632812 36.332031 C 39.347656 36.332031 39.191406 36.367188 39.132812 36.433594 C 39.074219 36.507812 38.921875 36.535156 38.601562 36.535156 C 38.28125 36.535156 38.125 36.558594 38.066406 36.632812 C 38.007812 36.707031 37.839844 36.734375 37.425781 36.734375 C 36.667969 36.734375 36.601562 36.800781 36.601562 37.558594 C 36.601562 37.972656 36.574219 38.140625 36.5 38.199219 C 36.425781 38.261719 36.398438 38.414062 36.398438 38.734375 C 36.398438 39.054688 36.375 39.207031 36.300781 39.265625 C 36.234375 39.328125 36.199219 39.480469 36.199219 39.765625 C 36.199219 40.078125 36.171875 40.191406 36.101562 40.226562 C 36.027344 40.253906 36 40.367188 36 40.621094 C 36 40.859375 35.964844 41.011719 35.898438 41.066406 C 35.839844 41.113281 35.800781 41.261719 35.800781 41.433594 C 35.800781 41.605469 35.761719 41.753906 35.699219 41.800781 C 35.640625 41.851562 35.601562 41.992188 35.601562 42.167969 C 35.601562 42.359375 35.566406 42.464844 35.5 42.492188 C 35.433594 42.511719 35.398438 42.621094 35.398438 42.785156 C 35.398438 42.941406 35.359375 43.085938 35.300781 43.132812 C 35.246094 43.179688 35.199219 43.3125 35.199219 43.433594 C 35.199219 43.574219 35.160156 43.667969 35.09375 43.691406 C 35.011719 43.726562 34.992188 43.785156 35.027344 43.964844 C 35.046875 44.09375 35.085938 44.308594 35.105469 44.433594 C 35.132812 44.585938 35.121094 44.667969 35.074219 44.667969 C 35.035156 44.667969 35 44.558594 35 44.425781 C 35 44.132812 34.847656 44.148438 34.8125 44.441406 C 34.800781 44.546875 34.746094 44.660156 34.691406 44.6875 C 34.640625 44.714844 34.601562 44.8125 34.601562 44.90625 C 34.601562 44.992188 34.554688 45.085938 34.5 45.105469 C 34.445312 45.132812 34.398438 45.214844 34.398438 45.300781 C 34.398438 45.378906 34.351562 45.488281 34.300781 45.535156 C 34.246094 45.578125 34.199219 45.671875 34.199219 45.746094 C 34.199219 45.8125 34.152344 45.886719 34.101562 45.90625 C 34.046875 45.933594 34 46 34 46.066406 C 34 46.140625 33.964844 46.214844 33.925781 46.234375 C 33.894531 46.261719 33.832031 46.347656 33.792969 46.421875 C 33.699219 46.640625 33.574219 46.828125 33.488281 46.886719 C 33.441406 46.914062 33.398438 46.980469 33.398438 47.027344 C 33.398438 47.078125 33.351562 47.132812 33.300781 47.160156 C 33.246094 47.179688 33.199219 47.234375 33.199219 47.285156 C 33.199219 47.398438 32.027344 48.535156 31.90625 48.535156 C 31.851562 48.535156 31.800781 48.578125 31.773438 48.632812 C 31.753906 48.6875 31.679688 48.734375 31.613281 48.734375 C 31.539062 48.734375 31.445312 48.78125 31.398438 48.832031 C 31.351562 48.886719 31.246094 48.933594 31.167969 48.933594 C 31.085938 48.933594 30.980469 48.980469 30.933594 49.035156 C 30.867188 49.113281 30.667969 49.132812 29.933594 49.132812 C 29.199219 49.132812 29 49.113281 28.933594 49.035156 C 28.886719 48.980469 28.78125 48.933594 28.699219 48.933594 C 28.621094 48.933594 28.511719 48.886719 28.464844 48.832031 C 28.421875 48.78125 28.328125 48.734375 28.261719 48.734375 C 28.1875 48.734375 28.132812 48.699219 28.132812 48.667969 C 28.132812 48.625 28.058594 48.566406 27.964844 48.535156 C 27.753906 48.453125 26.667969 47.414062 26.667969 47.285156 C 26.667969 47.238281 26.621094 47.179688 26.566406 47.160156 C 26.511719 47.132812 26.464844 47.074219 26.464844 47.027344 C 26.464844 46.972656 26.421875 46.914062 26.367188 46.894531 C 26.3125 46.867188 26.265625 46.808594 26.265625 46.761719 C 26.265625 46.707031 26.21875 46.648438 26.167969 46.625 C 26.113281 46.601562 26.066406 46.527344 26.066406 46.460938 C 26.066406 46.386719 26.019531 46.3125 25.964844 46.292969 C 25.914062 46.265625 25.867188 46.179688 25.867188 46.09375 C 25.867188 45.925781 25.699219 45.867188 25.648438 46.011719 C 25.625 46.058594 25.625 45.988281 25.648438 45.851562 C 25.671875 45.660156 25.660156 45.59375 25.574219 45.558594 C 25.511719 45.539062 25.464844 45.453125 25.464844 45.367188 C 25.464844 45.285156 25.421875 45.179688 25.367188 45.132812 C 25.3125 45.085938 25.265625 44.980469 25.265625 44.886719 C 25.265625 44.800781 25.21875 44.714844 25.167969 44.691406 C 25.105469 44.667969 25.066406 44.566406 25.066406 44.460938 C 25.066406 44.347656 25.027344 44.246094 24.964844 44.226562 C 24.90625 44.199219 24.867188 44.101562 24.867188 43.960938 C 24.867188 43.8125 24.828125 43.714844 24.765625 43.691406 C 24.707031 43.667969 24.667969 43.566406 24.667969 43.433594 C 24.667969 43.3125 24.621094 43.179688 24.566406 43.132812 C 24.507812 43.085938 24.464844 42.941406 24.464844 42.785156 C 24.464844 42.621094 24.433594 42.511719 24.367188 42.492188 C 24.300781 42.464844 24.265625 42.359375 24.265625 42.160156 C 24.265625 41.960938 24.234375 41.851562 24.167969 41.828125 C 24.101562 41.800781 24.066406 41.6875 24.066406 41.464844 C 24.066406 41.265625 24.027344 41.121094 23.964844 41.066406 C 23.898438 41.011719 23.867188 40.867188 23.867188 40.632812 C 23.867188 40.398438 23.832031 40.253906 23.765625 40.199219 C 23.699219 40.148438 23.667969 40 23.667969 39.773438 C 23.667969 39.574219 23.625 39.375 23.566406 39.292969 C 23.507812 39.214844 23.464844 39.007812 23.464844 38.734375 C 23.464844 38.460938 23.425781 38.253906 23.367188 38.171875 C 23.300781 38.078125 23.265625 37.875 23.265625 37.519531 C 23.265625 36.8125 23.1875 36.734375 22.480469 36.734375 C 22.125 36.734375 21.921875 36.699219 21.828125 36.632812 C 21.746094 36.574219 21.539062 36.539062 21.261719 36.535156 C 20.945312 36.535156 20.792969 36.507812 20.734375 36.433594 C 20.679688 36.367188 20.527344 36.332031 20.265625 36.332031 C 20.007812 36.332031 19.851562 36.300781 19.800781 36.234375 C 19.746094 36.167969 19.601562 36.132812 19.367188 36.132812 C 19.132812 36.132812 18.988281 36.101562 18.933594 36.035156 C 18.886719 35.972656 18.738281 35.933594 18.566406 35.933594 C 18.394531 35.933594 18.246094 35.894531 18.199219 35.832031 C 18.148438 35.773438 18.007812 35.734375 17.832031 35.734375 C 17.640625 35.734375 17.535156 35.699219 17.507812 35.632812 C 17.488281 35.566406 17.378906 35.535156 17.214844 35.535156 C 17.058594 35.535156 16.914062 35.492188 16.867188 35.433594 C 16.820312 35.378906 16.6875 35.332031 16.566406 35.332031 C 16.433594 35.332031 16.332031 35.292969 16.308594 35.234375 C 16.285156 35.171875 16.1875 35.132812 16.039062 35.132812 C 15.898438 35.132812 15.800781 35.09375 15.773438 35.035156 C 15.753906 34.972656 15.652344 34.933594 15.539062 34.933594 C 15.433594 34.933594 15.332031 34.894531 15.308594 34.832031 C 15.285156 34.78125 15.191406 34.734375 15.101562 34.734375 C 15.007812 34.734375 14.914062 34.6875 14.894531 34.632812 C 14.867188 34.578125 14.785156 34.535156 14.699219 34.535156 C 14.621094 34.535156 14.511719 34.488281 14.464844 34.433594 C 14.421875 34.378906 14.328125 34.332031 14.253906 34.332031 C 14.1875 34.332031 14.113281 34.285156 14.09375 34.234375 C 14.066406 34.179688 13.980469 34.132812 13.894531 34.132812 C 13.808594 34.132812 13.734375 34.101562 13.734375 34.066406 C 13.734375 34.027344 13.667969 33.964844 13.585938 33.933594 C 13.359375 33.832031 13.171875 33.714844 13.113281 33.613281 C 13.085938 33.574219 13.019531 33.535156 12.972656 33.535156 C 12.921875 33.535156 12.867188 33.488281 12.839844 33.433594 C 12.820312 33.378906 12.765625 33.332031 12.71875 33.332031 C 12.59375 33.332031 11.546875 32.246094 11.464844 32.039062 C 11.433594 31.941406 11.375 31.867188 11.332031 31.867188 C 11.300781 31.867188 11.265625 31.8125 11.265625 31.738281 C 11.265625 31.671875 11.21875 31.578125 11.167969 31.535156 C 11.113281 31.488281 11.066406 31.378906 11.066406 31.300781 C 11.066406 31.21875 11.019531 31.113281 10.964844 31.066406 C 10.820312 30.945312 10.820312 29.1875 10.964844 29.066406 C 11.019531 29.019531 11.066406 28.914062 11.066406 28.832031 C 11.066406 28.753906 11.113281 28.648438 11.167969 28.601562 C 11.21875 28.554688 11.265625 28.460938 11.265625 28.394531 C 11.265625 28.320312 11.300781 28.265625 11.332031 28.265625 C 11.375 28.265625 11.433594 28.191406 11.464844 28.09375 C 11.546875 27.886719 12.59375 26.800781 12.71875 26.800781 C 12.765625 26.800781 12.820312 26.753906 12.839844 26.699219 C 12.867188 26.648438 12.925781 26.601562 12.972656 26.601562 C 13.027344 26.601562 13.085938 26.554688 13.105469 26.5 C 13.132812 26.445312 13.191406 26.398438 13.238281 26.398438 C 13.292969 26.398438 13.351562 26.351562 13.375 26.300781 C 13.398438 26.246094 13.472656 26.199219 13.539062 26.199219 C 13.613281 26.199219 13.6875 26.152344 13.707031 26.101562 C 13.734375 26.046875 13.8125 26 13.898438 26 C 13.988281 26 14.066406 25.953125 14.09375 25.898438 C 14.113281 25.847656 14.1875 25.800781 14.253906 25.800781 C 14.328125 25.800781 14.421875 25.753906 14.464844 25.699219 C 14.511719 25.648438 14.601562 25.601562 14.667969 25.601562 C 14.734375 25.601562 14.820312 25.554688 14.867188 25.5 C 14.914062 25.445312 15.019531 25.398438 15.113281 25.398438 C 15.199219 25.398438 15.285156 25.351562 15.308594 25.300781 C 15.332031 25.238281 15.433594 25.199219 15.539062 25.199219 C 15.652344 25.199219 15.753906 25.160156 15.773438 25.101562 C 15.800781 25.039062 15.898438 25 16.039062 25 C 16.1875 25 16.285156 24.960938 16.308594 24.898438 C 16.332031 24.839844 16.433594 24.800781 16.566406 24.800781 C 16.6875 24.800781 16.820312 24.753906 16.867188 24.699219 C 16.914062 24.640625 17.058594 24.601562 17.214844 24.601562 C 17.378906 24.601562 17.488281 24.566406 17.507812 24.5 C 17.535156 24.433594 17.640625 24.398438 17.832031 24.398438 C 18.007812 24.398438 18.148438 24.359375 18.199219 24.300781 C 18.246094 24.238281 18.394531 24.199219 18.566406 24.199219 C 18.738281 24.199219 18.886719 24.160156 18.933594 24.101562 C 18.988281 24.035156 19.132812 24 19.367188 24 C 19.601562 24 19.746094 23.964844 19.800781 23.898438 C 19.851562 23.832031 20 23.800781 20.226562 23.800781 C 20.425781 23.800781 20.625 23.761719 20.707031 23.699219 C 20.785156 23.640625 20.992188 23.601562 21.265625 23.601562 C 21.539062 23.601562 21.746094 23.558594 21.828125 23.5 C 21.921875 23.433594 22.125 23.398438 22.480469 23.398438 C 23.1875 23.398438 23.265625 23.320312 23.265625 22.613281 C 23.265625 22.261719 23.300781 22.054688 23.367188 21.960938 C 23.425781 21.878906 23.464844 21.671875 23.464844 21.398438 C 23.464844 21.125 23.507812 20.921875 23.566406 20.839844 C 23.625 20.761719 23.667969 20.558594 23.667969 20.359375 C 23.667969 20.132812 23.699219 19.988281 23.765625 19.933594 C 23.832031 19.878906 23.867188 19.734375 23.867188 19.5 C 23.867188 19.265625 23.898438 19.121094 23.964844 19.066406 C 24.027344 19.019531 24.066406 18.875 24.066406 18.699219 C 24.066406 18.527344 24.105469 18.378906 24.167969 18.332031 C 24.226562 18.28125 24.265625 18.140625 24.265625 17.964844 C 24.265625 17.773438 24.300781 17.667969 24.367188 17.640625 C 24.433594 17.621094 24.464844 17.511719 24.464844 17.347656 C 24.464844 17.191406 24.507812 17.046875 24.566406 17 C 24.621094 16.953125 24.667969 16.820312 24.667969 16.699219 C 24.667969 16.566406 24.707031 16.464844 24.765625 16.441406 C 24.828125 16.421875 24.867188 16.320312 24.867188 16.171875 C 24.867188 16.035156 24.90625 15.933594 24.964844 15.90625 C 25.027344 15.886719 25.066406 15.785156 25.066406 15.671875 C 25.066406 15.566406 25.105469 15.464844 25.167969 15.441406 C 25.21875 15.421875 25.265625 15.332031 25.265625 15.246094 C 25.265625 15.152344 25.3125 15.046875 25.367188 15 C 25.421875 14.953125 25.464844 14.847656 25.464844 14.765625 C 25.464844 14.679688 25.511719 14.59375 25.574219 14.574219 C 25.648438 14.546875 25.671875 14.472656 25.652344 14.339844 C 25.632812 14.1875 25.648438 14.160156 25.746094 14.1875 C 25.839844 14.207031 25.867188 14.179688 25.867188 14.046875 C 25.867188 13.953125 25.914062 13.867188 25.964844 13.839844 C 26.019531 13.820312 26.066406 13.738281 26.066406 13.667969 C 26.066406 13.59375 26.101562 13.535156 26.132812 13.535156 C 26.171875 13.535156 26.234375 13.460938 26.265625 13.367188 C 26.300781 13.273438 26.359375 13.199219 26.398438 13.199219 C 26.433594 13.199219 26.464844 13.160156 26.464844 13.105469 C 26.464844 13.054688 26.511719 13 26.566406 12.972656 C 26.621094 12.953125 26.667969 12.898438 26.667969 12.851562 C 26.667969 12.800781 26.71875 12.714844 26.785156 12.660156 C 26.847656 12.601562 27.054688 12.394531 27.246094 12.1875 C 27.433594 11.988281 27.632812 11.800781 27.679688 11.773438 C 27.859375 11.691406 28.035156 11.566406 28.085938 11.480469 C 28.113281 11.441406 28.191406 11.398438 28.261719 11.398438 C 28.328125 11.398438 28.421875 11.351562 28.464844 11.300781 C 28.511719 11.246094 28.621094 11.199219 28.699219 11.199219 C 28.78125 11.199219 28.886719 11.152344 28.933594 11.101562 C 29 11.019531 29.199219 11 29.933594 11 C 30.667969 11 30.867188 11.019531 30.933594 11.101562 Z M 33.132812 12.265625 C 33.132812 12.359375 33.074219 12.347656 32.960938 12.238281 C 32.828125 12.101562 32.847656 12.054688 33 12.132812 C 33.074219 12.171875 33.132812 12.234375 33.132812 12.265625 Z M 34.832031 14.726562 C 34.878906 14.808594 34.753906 14.886719 34.667969 14.832031 C 34.59375 14.785156 34.640625 14.667969 34.734375 14.667969 C 34.765625 14.667969 34.808594 14.691406 34.832031 14.726562 Z M 35.132812 15.671875 C 35.132812 15.738281 35.105469 15.800781 35.066406 15.800781 C 35.035156 15.800781 35 15.71875 35 15.625 C 35 15.535156 35.027344 15.472656 35.066406 15.5 C 35.105469 15.519531 35.132812 15.601562 35.132812 15.671875 Z M 35.867188 17.464844 C 35.867188 17.539062 35.851562 17.601562 35.832031 17.601562 C 35.820312 17.601562 35.773438 17.539062 35.734375 17.464844 C 35.671875 17.359375 35.679688 17.332031 35.765625 17.332031 C 35.820312 17.332031 35.867188 17.394531 35.867188 17.464844 Z M 22.988281 22.832031 C 23.054688 22.972656 23.046875 23.007812 22.933594 23.066406 C 22.621094 23.234375 22.441406 23.074219 22.671875 22.828125 C 22.859375 22.625 22.894531 22.625 22.988281 22.832031 Z M 37.160156 22.859375 C 37.359375 23.078125 37.152344 23.226562 36.90625 23.046875 C 36.832031 22.992188 36.808594 22.921875 36.839844 22.847656 C 36.894531 22.699219 37.019531 22.699219 37.160156 22.859375 Z M 21.332031 23.320312 C 21.167969 23.347656 21.101562 23.308594 21.160156 23.207031 C 21.191406 23.160156 21.246094 23.160156 21.339844 23.21875 C 21.472656 23.300781 21.472656 23.300781 21.332031 23.320312 Z M 42.398438 24.132812 C 42.480469 24.1875 42.460938 24.199219 42.3125 24.199219 C 42.207031 24.199219 42.140625 24.171875 42.167969 24.132812 C 42.21875 24.054688 42.273438 24.054688 42.398438 24.132812 Z M 49.464844 30.179688 C 49.464844 30.292969 49.441406 30.414062 49.398438 30.433594 C 49.359375 30.453125 49.332031 30.40625 49.332031 30.3125 C 49.332031 30.21875 49.3125 30.046875 49.292969 29.925781 C 49.253906 29.714844 49.253906 29.707031 49.351562 29.832031 C 49.414062 29.90625 49.464844 30.058594 49.464844 30.179688 Z M 10.867188 31.480469 C 10.867188 31.605469 10.851562 31.613281 10.800781 31.535156 C 10.714844 31.40625 10.714844 31.332031 10.800781 31.332031 C 10.839844 31.332031 10.867188 31.398438 10.867188 31.480469 Z M 12.199219 33.214844 C 12.199219 33.300781 12.046875 33.246094 12.011719 33.148438 C 12 33.101562 12.027344 33.078125 12.09375 33.105469 C 12.152344 33.125 12.199219 33.179688 12.199219 33.214844 Z M 14 34.480469 C 14 34.519531 13.953125 34.527344 13.894531 34.507812 C 13.832031 34.488281 13.773438 34.464844 13.761719 34.464844 C 13.738281 34.464844 13.738281 34.441406 13.765625 34.398438 C 13.8125 34.328125 14 34.386719 14 34.480469 Z M 14.714844 34.90625 C 14.652344 34.964844 14.527344 34.867188 14.574219 34.785156 C 14.601562 34.746094 14.640625 34.746094 14.6875 34.792969 C 14.726562 34.832031 14.738281 34.878906 14.714844 34.90625 Z M 45.464844 34.832031 C 45.421875 34.886719 45.339844 34.933594 45.292969 34.933594 C 45.238281 34.933594 45.199219 34.886719 45.199219 34.832031 C 45.199219 34.765625 45.265625 34.734375 45.375 34.734375 C 45.519531 34.734375 45.539062 34.746094 45.464844 34.832031 Z M 15.667969 35.199219 C 15.667969 35.285156 15.398438 35.285156 15.265625 35.199219 C 15.191406 35.152344 15.234375 35.132812 15.421875 35.132812 C 15.554688 35.132812 15.667969 35.160156 15.667969 35.199219 Z M 44.535156 35.199219 C 44.292969 35.28125 44.132812 35.28125 44.132812 35.199219 C 44.132812 35.160156 44.261719 35.132812 44.421875 35.140625 C 44.660156 35.148438 44.671875 35.152344 44.535156 35.199219 Z M 17.367188 35.867188 C 17.386719 35.898438 17.480469 35.933594 17.574219 35.933594 C 17.660156 35.933594 17.734375 35.964844 17.734375 36.007812 C 17.734375 36.054688 17.671875 36.066406 17.585938 36.039062 C 17.5 36.011719 17.375 35.980469 17.300781 35.972656 C 17.226562 35.960938 17.148438 35.945312 17.121094 35.941406 C 17.007812 35.921875 17.074219 35.800781 17.191406 35.800781 C 17.265625 35.800781 17.347656 35.828125 17.367188 35.867188 Z M 18.765625 36.308594 C 18.898438 36.40625 18.898438 36.414062 18.738281 36.386719 C 18.648438 36.375 18.566406 36.328125 18.546875 36.28125 C 18.511719 36.171875 18.605469 36.179688 18.765625 36.308594 Z M 22.933594 37.058594 C 23.027344 37.246094 23.019531 37.265625 22.839844 37.265625 C 22.652344 37.265625 22.574219 37.171875 22.625 37.035156 C 22.679688 36.894531 22.847656 36.914062 22.933594 37.058594 Z M 37.199219 37.058594 C 37.199219 37.140625 37.046875 37.265625 36.953125 37.265625 C 36.847656 37.265625 36.839844 37.121094 36.941406 37.019531 C 37.011719 36.945312 37.199219 36.972656 37.199219 37.058594 Z M 36.285156 41.179688 C 36.234375 41.320312 36.140625 41.214844 36.179688 41.058594 C 36.207031 40.960938 36.234375 40.945312 36.265625 41.007812 C 36.300781 41.054688 36.308594 41.125 36.285156 41.179688 Z M 24.933594 44.765625 C 25 44.847656 25 44.867188 24.90625 44.867188 C 24.847656 44.867188 24.800781 44.820312 24.800781 44.765625 C 24.800781 44.714844 24.8125 44.667969 24.828125 44.667969 C 24.839844 44.667969 24.886719 44.714844 24.933594 44.765625 Z M 34.734375 45.425781 C 34.734375 45.480469 34.707031 45.546875 34.667969 45.566406 C 34.632812 45.585938 34.601562 45.546875 34.601562 45.472656 C 34.601562 45.394531 34.632812 45.332031 34.667969 45.332031 C 34.707031 45.332031 34.734375 45.375 34.734375 45.425781 Z M 30.261719 49.460938 C 30.328125 49.5 30.328125 49.527344 30.265625 49.566406 C 30.171875 49.625 29.867188 49.554688 29.867188 49.464844 C 29.867188 49.386719 30.132812 49.378906 30.261719 49.460938 Z M 30.261719 49.460938 "/>
<path style=" stroke:none;fill-rule:nonzero;fill:rgb(25.882354%,30.19608%,90.588236%);fill-opacity:1;" d="M 29.398438 13.234375 C 29.351562 13.285156 29.28125 13.332031 29.234375 13.332031 C 29.09375 13.332031 28.265625 14.191406 28.179688 14.433594 C 28.152344 14.488281 28.105469 14.535156 28.066406 14.535156 C 28.035156 14.535156 28 14.59375 28 14.667969 C 28 14.738281 27.953125 14.820312 27.898438 14.839844 C 27.847656 14.867188 27.800781 14.933594 27.800781 15 C 27.800781 15.066406 27.753906 15.152344 27.699219 15.199219 C 27.648438 15.246094 27.601562 15.320312 27.601562 15.367188 C 27.601562 15.414062 27.554688 15.488281 27.5 15.535156 C 27.445312 15.578125 27.398438 15.6875 27.398438 15.765625 C 27.398438 15.847656 27.351562 15.953125 27.300781 16 C 27.246094 16.046875 27.199219 16.152344 27.199219 16.234375 C 27.199219 16.320312 27.152344 16.398438 27.101562 16.425781 C 27.039062 16.445312 27 16.546875 27 16.652344 C 27 16.761719 26.953125 16.886719 26.898438 16.933594 C 26.847656 16.980469 26.800781 17.101562 26.800781 17.199219 C 26.800781 17.300781 26.753906 17.421875 26.699219 17.464844 C 26.648438 17.511719 26.601562 17.648438 26.601562 17.765625 C 26.601562 17.886719 26.554688 18.019531 26.5 18.066406 C 26.445312 18.113281 26.398438 18.261719 26.398438 18.398438 C 26.398438 18.558594 26.367188 18.667969 26.300781 18.691406 C 26.226562 18.71875 26.199219 18.828125 26.199219 19.054688 C 26.199219 19.265625 26.167969 19.414062 26.101562 19.464844 C 26.039062 19.519531 26 19.667969 26 19.867188 C 26 20.066406 25.960938 20.214844 25.898438 20.265625 C 25.832031 20.320312 25.800781 20.472656 25.800781 20.726562 C 25.792969 20.945312 25.753906 21.152344 25.699219 21.226562 C 25.640625 21.308594 25.601562 21.511719 25.601562 21.761719 C 25.59375 22.011719 25.558594 22.214844 25.5 22.292969 C 25.445312 22.367188 25.398438 22.558594 25.398438 22.71875 L 25.398438 23.011719 L 26.453125 22.972656 C 27.027344 22.953125 27.679688 22.90625 27.898438 22.875 C 28.566406 22.765625 31.480469 22.785156 32.167969 22.898438 C 32.5 22.953125 33.148438 23 33.621094 23 L 34.464844 23 L 34.464844 22.714844 C 34.464844 22.554688 34.421875 22.367188 34.367188 22.292969 C 34.308594 22.214844 34.273438 22.007812 34.265625 21.726562 C 34.265625 21.414062 34.238281 21.261719 34.167969 21.199219 C 34.101562 21.148438 34.066406 20.992188 34.066406 20.738281 C 34.058594 20.519531 34.019531 20.3125 33.964844 20.238281 C 33.914062 20.167969 33.867188 19.964844 33.867188 19.792969 C 33.867188 19.578125 33.832031 19.464844 33.765625 19.441406 C 33.691406 19.414062 33.667969 19.308594 33.667969 19.066406 C 33.667969 18.828125 33.640625 18.71875 33.566406 18.691406 C 33.5 18.667969 33.464844 18.558594 33.464844 18.398438 C 33.464844 18.261719 33.421875 18.113281 33.367188 18.066406 C 33.3125 18.019531 33.265625 17.875 33.265625 17.734375 C 33.265625 17.574219 33.234375 17.464844 33.167969 17.441406 C 33.105469 17.421875 33.066406 17.320312 33.066406 17.171875 C 33.066406 17.035156 33.027344 16.933594 32.964844 16.90625 C 32.90625 16.886719 32.867188 16.785156 32.867188 16.679688 C 32.867188 16.574219 32.820312 16.445312 32.765625 16.398438 C 32.714844 16.351562 32.667969 16.246094 32.667969 16.167969 C 32.667969 16.078125 32.621094 16 32.566406 15.972656 C 32.511719 15.953125 32.464844 15.867188 32.464844 15.773438 C 32.464844 15.679688 32.433594 15.585938 32.394531 15.566406 C 32.359375 15.539062 32.300781 15.445312 32.265625 15.359375 C 32.191406 15.167969 32.066406 15.148438 32.066406 15.332031 C 32.066406 15.40625 32.035156 15.464844 31.992188 15.464844 C 31.945312 15.464844 31.933594 15.414062 31.964844 15.3125 C 32.066406 14.992188 32.078125 14.867188 32.011719 14.867188 C 31.980469 14.867188 31.886719 14.746094 31.808594 14.601562 C 31.734375 14.460938 31.621094 14.28125 31.554688 14.214844 C 31.488281 14.148438 31.332031 13.964844 31.207031 13.8125 C 31.078125 13.660156 30.941406 13.535156 30.894531 13.535156 C 30.851562 13.535156 30.800781 13.488281 30.773438 13.433594 C 30.753906 13.378906 30.691406 13.332031 30.648438 13.332031 C 30.59375 13.332031 30.511719 13.285156 30.464844 13.234375 C 30.40625 13.160156 30.253906 13.132812 29.933594 13.132812 C 29.613281 13.132812 29.460938 13.160156 29.398438 13.234375 Z M 29.601562 13.464844 C 29.601562 13.535156 29.386719 13.667969 29.273438 13.667969 C 29.148438 13.667969 29.191406 13.566406 29.351562 13.492188 C 29.546875 13.394531 29.601562 13.386719 29.601562 13.464844 Z M 30.398438 13.5 C 30.472656 13.585938 30.445312 13.601562 30.234375 13.601562 C 30.019531 13.601562 29.992188 13.585938 30.066406 13.5 C 30.113281 13.445312 30.1875 13.398438 30.234375 13.398438 C 30.28125 13.398438 30.351562 13.445312 30.398438 13.5 Z M 32.464844 16.265625 C 32.464844 16.375 32.441406 16.464844 32.40625 16.464844 C 32.328125 16.464844 32.246094 16.21875 32.300781 16.132812 C 32.378906 16 32.464844 16.066406 32.464844 16.265625 Z M 26.707031 18.726562 C 26.625 18.851562 26.546875 18.808594 26.578125 18.660156 C 26.605469 18.574219 26.640625 18.546875 26.679688 18.585938 C 26.71875 18.625 26.726562 18.6875 26.707031 18.726562 Z M 26.253906 20.578125 C 26.238281 20.71875 26.207031 20.832031 26.167969 20.832031 C 26.132812 20.832031 26.09375 20.71875 26.078125 20.578125 C 26.058594 20.386719 26.078125 20.332031 26.167969 20.332031 C 26.253906 20.332031 26.273438 20.386719 26.253906 20.578125 Z M 28.800781 22.535156 C 28.867188 22.578125 28.753906 22.601562 28.414062 22.601562 C 28.105469 22.601562 27.941406 22.574219 27.964844 22.535156 C 28.019531 22.445312 28.667969 22.445312 28.800781 22.535156 Z M 30.367188 22.535156 C 30.453125 22.566406 30.21875 22.59375 29.734375 22.59375 C 29.214844 22.601562 29 22.578125 29.066406 22.535156 C 29.1875 22.453125 30.179688 22.453125 30.367188 22.535156 Z M 31.964844 22.535156 C 32.054688 22.574219 31.867188 22.59375 31.433594 22.59375 C 30.980469 22.601562 30.800781 22.578125 30.867188 22.535156 C 30.988281 22.453125 31.78125 22.453125 31.964844 22.535156 Z M 33.332031 22.566406 C 33.332031 22.621094 33.285156 22.667969 33.234375 22.667969 C 33.179688 22.667969 33.132812 22.621094 33.132812 22.566406 C 33.132812 22.511719 33.179688 22.464844 33.234375 22.464844 C 33.285156 22.464844 33.332031 22.511719 33.332031 22.566406 Z M 34.265625 22.601562 C 34.265625 22.785156 34.066406 22.851562 33.960938 22.699219 C 33.847656 22.546875 33.898438 22.464844 34.105469 22.464844 C 34.21875 22.464844 34.265625 22.5 34.265625 22.601562 Z M 34.265625 22.601562 "/>
<path style=" stroke:none;fill-rule:nonzero;fill:rgb(25.882354%,30.19608%,90.588236%);fill-opacity:1;" d="M 28.511719 25.039062 C 28.488281 25.066406 27.746094 25.105469 26.867188 25.125 C 25.453125 25.160156 25.261719 25.179688 25.152344 25.285156 C 25.046875 25.386719 25.027344 25.601562 24.980469 26.988281 C 24.875 30.132812 24.945312 34.339844 25.121094 34.867188 C 25.167969 34.992188 25.199219 35.367188 25.199219 35.699219 C 25.199219 36.101562 25.234375 36.359375 25.300781 36.492188 C 25.367188 36.613281 25.398438 36.867188 25.398438 37.191406 C 25.398438 37.539062 25.433594 37.746094 25.5 37.839844 C 25.558594 37.921875 25.59375 38.125 25.601562 38.40625 C 25.601562 38.71875 25.625 38.875 25.699219 38.933594 C 25.765625 38.988281 25.800781 39.140625 25.800781 39.398438 C 25.800781 39.660156 25.832031 39.8125 25.898438 39.867188 C 25.964844 39.921875 26 40.074219 26 40.300781 C 26 40.554688 26.027344 40.667969 26.101562 40.691406 C 26.167969 40.71875 26.199219 40.820312 26.199219 41.019531 C 26.199219 41.199219 26.238281 41.347656 26.300781 41.398438 C 26.351562 41.445312 26.398438 41.59375 26.398438 41.734375 C 26.398438 41.875 26.445312 42.019531 26.5 42.066406 C 26.554688 42.113281 26.601562 42.246094 26.601562 42.367188 C 26.601562 42.488281 26.648438 42.621094 26.699219 42.667969 C 26.753906 42.714844 26.800781 42.847656 26.800781 42.964844 C 26.800781 43.101562 26.839844 43.199219 26.898438 43.226562 C 26.960938 43.246094 27 43.347656 27 43.464844 C 27 43.585938 27.039062 43.6875 27.101562 43.707031 C 27.152344 43.734375 27.199219 43.8125 27.199219 43.898438 C 27.199219 43.980469 27.246094 44.085938 27.300781 44.132812 C 27.351562 44.179688 27.398438 44.285156 27.398438 44.367188 C 27.398438 44.445312 27.445312 44.554688 27.5 44.601562 C 27.554688 44.648438 27.601562 44.71875 27.601562 44.765625 C 27.601562 44.8125 27.648438 44.886719 27.699219 44.933594 C 27.753906 44.980469 27.800781 45.066406 27.800781 45.132812 C 27.800781 45.199219 27.847656 45.265625 27.898438 45.292969 C 27.953125 45.3125 28 45.394531 28 45.464844 C 28 45.539062 28.027344 45.601562 28.054688 45.601562 C 28.085938 45.601562 28.207031 45.726562 28.320312 45.886719 C 28.625 46.320312 28.886719 46.601562 28.972656 46.601562 C 29.019531 46.601562 29.066406 46.648438 29.09375 46.699219 C 29.113281 46.753906 29.171875 46.800781 29.21875 46.800781 C 29.273438 46.800781 29.351562 46.847656 29.398438 46.898438 C 29.511719 47.039062 30.351562 47.039062 30.464844 46.898438 C 30.511719 46.847656 30.59375 46.800781 30.648438 46.800781 C 30.691406 46.800781 30.753906 46.753906 30.773438 46.699219 C 30.800781 46.648438 30.851562 46.601562 30.894531 46.601562 C 30.941406 46.601562 31.078125 46.472656 31.207031 46.320312 C 31.332031 46.171875 31.5 45.964844 31.578125 45.875 C 31.667969 45.78125 31.761719 45.667969 31.800781 45.621094 C 31.832031 45.574219 31.867188 45.480469 31.867188 45.398438 C 31.867188 45.328125 31.914062 45.265625 31.964844 45.265625 C 32.019531 45.265625 32.066406 45.207031 32.066406 45.132812 C 32.066406 45.058594 32.113281 44.980469 32.167969 44.960938 C 32.21875 44.933594 32.265625 44.867188 32.265625 44.800781 C 32.265625 44.734375 32.3125 44.648438 32.367188 44.601562 C 32.421875 44.554688 32.464844 44.445312 32.464844 44.367188 C 32.464844 44.285156 32.511719 44.179688 32.566406 44.132812 C 32.621094 44.085938 32.667969 43.980469 32.667969 43.898438 C 32.667969 43.8125 32.714844 43.734375 32.765625 43.707031 C 32.828125 43.6875 32.867188 43.585938 32.867188 43.464844 C 32.867188 43.347656 32.90625 43.246094 32.964844 43.226562 C 33.027344 43.199219 33.066406 43.101562 33.066406 42.964844 C 33.066406 42.847656 33.113281 42.714844 33.167969 42.667969 C 33.21875 42.621094 33.265625 42.488281 33.265625 42.367188 C 33.265625 42.246094 33.3125 42.113281 33.367188 42.066406 C 33.421875 42.019531 33.464844 41.875 33.464844 41.734375 C 33.464844 41.574219 33.5 41.464844 33.566406 41.441406 C 33.640625 41.414062 33.667969 41.308594 33.667969 41.066406 C 33.667969 40.828125 33.691406 40.71875 33.765625 40.691406 C 33.839844 40.667969 33.867188 40.554688 33.867188 40.300781 C 33.867188 40.074219 33.898438 39.921875 33.964844 39.867188 C 34.035156 39.8125 34.066406 39.660156 34.066406 39.398438 C 34.066406 39.140625 34.101562 38.988281 34.167969 38.933594 C 34.238281 38.875 34.265625 38.71875 34.265625 38.40625 C 34.273438 38.125 34.308594 37.921875 34.367188 37.839844 C 34.433594 37.753906 34.464844 37.546875 34.464844 37.226562 C 34.464844 36.953125 34.507812 36.648438 34.566406 36.511719 C 34.632812 36.351562 34.667969 36.054688 34.667969 35.648438 C 34.667969 34.828125 34.691406 34.800781 35.527344 34.800781 C 35.921875 34.800781 36.21875 34.765625 36.378906 34.699219 C 36.511719 34.640625 36.820312 34.601562 37.09375 34.601562 C 37.414062 34.601562 37.621094 34.566406 37.707031 34.5 C 37.785156 34.441406 37.992188 34.40625 38.273438 34.398438 C 38.585938 34.398438 38.738281 34.375 38.800781 34.300781 C 38.851562 34.234375 39.007812 34.199219 39.265625 34.199219 C 39.527344 34.199219 39.679688 34.167969 39.734375 34.101562 C 39.785156 34.035156 39.933594 34 40.148438 34 C 40.351562 34 40.511719 33.960938 40.574219 33.898438 C 40.632812 33.847656 40.792969 33.800781 40.925781 33.800781 C 41.074219 33.800781 41.21875 33.761719 41.265625 33.699219 C 41.3125 33.648438 41.460938 33.601562 41.601562 33.601562 C 41.738281 33.601562 41.886719 33.554688 41.933594 33.5 C 41.980469 33.445312 42.113281 33.398438 42.234375 33.398438 C 42.351562 33.398438 42.488281 33.351562 42.535156 33.300781 C 42.578125 33.246094 42.714844 33.199219 42.832031 33.199219 C 42.964844 33.199219 43.066406 33.160156 43.09375 33.101562 C 43.113281 33.039062 43.214844 33 43.332031 33 C 43.453125 33 43.554688 32.960938 43.574219 32.898438 C 43.601562 32.847656 43.679688 32.800781 43.765625 32.800781 C 43.847656 32.800781 43.953125 32.753906 44 32.699219 C 44.046875 32.648438 44.152344 32.601562 44.238281 32.601562 C 44.320312 32.601562 44.414062 32.566406 44.433594 32.527344 C 44.460938 32.492188 44.554688 32.433594 44.640625 32.398438 C 44.832031 32.328125 44.851562 32.199219 44.667969 32.199219 C 44.59375 32.199219 44.535156 32.167969 44.535156 32.132812 C 44.535156 32.09375 44.574219 32.066406 44.625 32.066406 C 44.679688 32.066406 44.746094 32.09375 44.765625 32.132812 C 44.832031 32.234375 45.113281 32.214844 45.160156 32.101562 C 45.179688 32.046875 45.253906 32 45.328125 32 C 45.394531 32 45.464844 31.953125 45.492188 31.898438 C 45.511719 31.847656 45.558594 31.800781 45.601562 31.800781 C 45.632812 31.800781 45.71875 31.746094 45.785156 31.679688 C 45.851562 31.621094 46.035156 31.464844 46.1875 31.339844 C 46.339844 31.214844 46.464844 31.074219 46.464844 31.027344 C 46.464844 30.988281 46.511719 30.933594 46.566406 30.90625 C 46.621094 30.886719 46.667969 30.828125 46.667969 30.78125 C 46.667969 30.726562 46.714844 30.648438 46.765625 30.601562 C 46.839844 30.539062 46.867188 30.386719 46.867188 30.066406 C 46.867188 29.746094 46.839844 29.59375 46.765625 29.535156 C 46.714844 29.488281 46.667969 29.414062 46.667969 29.367188 C 46.667969 29.261719 45.972656 28.535156 45.875 28.535156 C 45.828125 28.535156 45.78125 28.488281 45.761719 28.433594 C 45.734375 28.378906 45.671875 28.332031 45.625 28.332031 C 45.574219 28.332031 45.511719 28.285156 45.492188 28.234375 C 45.464844 28.179688 45.394531 28.132812 45.328125 28.132812 C 45.253906 28.132812 45.179688 28.085938 45.160156 28.035156 C 45.132812 27.980469 45.066406 27.933594 45 27.933594 C 44.933594 27.933594 44.847656 27.886719 44.800781 27.832031 C 44.753906 27.78125 44.679688 27.734375 44.632812 27.734375 C 44.585938 27.734375 44.511719 27.6875 44.464844 27.632812 C 44.421875 27.578125 44.3125 27.535156 44.234375 27.535156 C 44.152344 27.535156 44.046875 27.488281 44 27.433594 C 43.953125 27.378906 43.847656 27.332031 43.765625 27.332031 C 43.679688 27.332031 43.601562 27.285156 43.574219 27.234375 C 43.554688 27.171875 43.453125 27.132812 43.332031 27.132812 C 43.214844 27.132812 43.113281 27.09375 43.09375 27.035156 C 43.066406 26.972656 42.964844 26.933594 42.828125 26.933594 C 42.679688 26.933594 42.578125 26.894531 42.558594 26.832031 C 42.535156 26.765625 42.425781 26.734375 42.265625 26.734375 C 42.125 26.734375 41.980469 26.6875 41.933594 26.632812 C 41.886719 26.578125 41.738281 26.535156 41.601562 26.535156 C 41.441406 26.535156 41.332031 26.5 41.308594 26.433594 C 41.28125 26.367188 41.179688 26.332031 40.980469 26.332031 C 40.800781 26.332031 40.652344 26.292969 40.601562 26.234375 C 40.546875 26.167969 40.394531 26.132812 40.152344 26.132812 C 39.898438 26.132812 39.785156 26.105469 39.761719 26.035156 C 39.726562 25.960938 39.613281 25.933594 39.300781 25.933594 C 39.011719 25.933594 38.859375 25.898438 38.800781 25.832031 C 38.738281 25.761719 38.585938 25.734375 38.273438 25.734375 C 37.992188 25.726562 37.785156 25.691406 37.707031 25.632812 C 37.613281 25.558594 37.40625 25.535156 37.011719 25.535156 C 36.605469 25.535156 36.433594 25.507812 36.359375 25.433594 C 36.28125 25.359375 36.09375 25.332031 35.566406 25.332031 C 35.171875 25.332031 34.792969 25.300781 34.6875 25.253906 C 34.421875 25.140625 28.621094 24.941406 28.511719 25.039062 Z M 25.621094 25.648438 C 25.535156 25.699219 25.464844 25.8125 25.464844 25.894531 C 25.460938 26.007812 25.453125 26.011719 25.398438 25.925781 C 25.292969 25.746094 25.394531 25.535156 25.59375 25.539062 L 25.765625 25.539062 Z M 35.332031 25.601562 C 35.332031 25.6875 35.199219 25.6875 35.066406 25.601562 C 34.988281 25.546875 35.007812 25.535156 35.152344 25.535156 C 35.253906 25.535156 35.332031 25.558594 35.332031 25.601562 Z M 36.066406 25.601562 C 36.066406 25.632812 36.007812 25.667969 35.933594 25.667969 C 35.859375 25.667969 35.800781 25.632812 35.800781 25.601562 C 35.800781 25.558594 35.859375 25.535156 35.933594 25.535156 C 36.007812 25.535156 36.066406 25.558594 36.066406 25.601562 Z M 39.566406 26.265625 C 39.585938 26.300781 39.71875 26.332031 39.851562 26.332031 C 40.027344 26.332031 40.074219 26.351562 40.007812 26.394531 C 39.953125 26.425781 39.875 26.441406 39.832031 26.425781 C 39.785156 26.40625 39.667969 26.386719 39.566406 26.378906 C 39.460938 26.375 39.367188 26.328125 39.347656 26.28125 C 39.320312 26.1875 39.507812 26.171875 39.566406 26.265625 Z M 45.398438 28.433594 C 45.535156 28.59375 45.441406 28.621094 45.300781 28.464844 C 45.234375 28.394531 45.214844 28.332031 45.246094 28.332031 C 45.285156 28.332031 45.351562 28.378906 45.398438 28.433594 Z M 41.765625 33.332031 C 41.746094 33.367188 41.679688 33.398438 41.625 33.398438 C 41.574219 33.398438 41.535156 33.367188 41.535156 33.332031 C 41.535156 33.292969 41.59375 33.265625 41.671875 33.265625 C 41.746094 33.265625 41.785156 33.292969 41.765625 33.332031 Z M 37.464844 34.234375 C 37.464844 34.285156 37.441406 34.332031 37.40625 34.332031 C 37.375 34.332031 37.3125 34.285156 37.265625 34.234375 C 37.199219 34.148438 37.207031 34.132812 37.328125 34.132812 C 37.40625 34.132812 37.464844 34.171875 37.464844 34.234375 Z M 37.132812 34.253906 C 37.132812 34.339844 37.054688 34.398438 36.988281 34.359375 C 36.921875 34.320312 36.980469 34.199219 37.074219 34.199219 C 37.105469 34.199219 37.132812 34.226562 37.132812 34.253906 Z M 25.527344 36.035156 C 25.527344 36.140625 25.5 36.28125 25.464844 36.332031 C 25.425781 36.398438 25.40625 36.285156 25.414062 35.964844 C 25.425781 35.511719 25.511719 35.566406 25.527344 36.035156 Z M 34.148438 37.621094 C 34.105469 37.699219 34.058594 37.828125 34.046875 37.898438 C 34.027344 37.972656 34.011719 37.925781 34.007812 37.792969 C 34.007812 37.667969 34.035156 37.527344 34.078125 37.480469 C 34.191406 37.367188 34.234375 37.445312 34.148438 37.621094 Z M 26.292969 39.832031 C 26.320312 39.925781 26.308594 40.054688 26.273438 40.121094 C 26.214844 40.21875 26.207031 40.21875 26.199219 40.125 C 26.199219 40.066406 26.179688 39.921875 26.152344 39.800781 C 26.105469 39.539062 26.226562 39.574219 26.292969 39.832031 Z M 32.40625 43.886719 C 32.351562 43.941406 32.332031 43.914062 32.332031 43.792969 C 32.332031 43.574219 32.425781 43.480469 32.453125 43.667969 C 32.464844 43.746094 32.445312 43.847656 32.40625 43.886719 Z M 32.066406 44.808594 C 32.066406 44.878906 32.039062 44.921875 32 44.898438 C 31.964844 44.878906 31.933594 44.8125 31.933594 44.761719 C 31.933594 44.707031 31.964844 44.667969 32 44.667969 C 32.039062 44.667969 32.066406 44.726562 32.066406 44.808594 Z M 29.464844 46.535156 C 29.519531 46.566406 29.546875 46.605469 29.527344 46.625 C 29.507812 46.648438 29.433594 46.621094 29.359375 46.566406 C 29.21875 46.460938 29.308594 46.433594 29.464844 46.535156 Z M 29.464844 46.535156 "/>
<path style=" stroke:none;fill-rule:nonzero;fill:rgb(25.882354%,30.19608%,90.588236%);fill-opacity:1;" d="M 22.160156 25.632812 C 22.078125 25.691406 21.875 25.726562 21.59375 25.734375 C 21.28125 25.734375 21.125 25.761719 21.066406 25.832031 C 21.007812 25.898438 20.851562 25.933594 20.566406 25.933594 C 20.253906 25.933594 20.140625 25.960938 20.105469 26.035156 C 20.078125 26.105469 19.964844 26.132812 19.707031 26.132812 C 19.445312 26.132812 19.339844 26.160156 19.308594 26.234375 C 19.28125 26.308594 19.171875 26.332031 18.933594 26.332031 C 18.691406 26.332031 18.585938 26.359375 18.558594 26.433594 C 18.535156 26.5 18.425781 26.535156 18.265625 26.535156 C 18.125 26.535156 17.980469 26.578125 17.933594 26.632812 C 17.886719 26.6875 17.753906 26.734375 17.632812 26.734375 C 17.511719 26.734375 17.378906 26.78125 17.332031 26.832031 C 17.285156 26.886719 17.152344 26.933594 17.035156 26.933594 C 16.898438 26.933594 16.800781 26.972656 16.773438 27.035156 C 16.753906 27.09375 16.652344 27.132812 16.535156 27.132812 C 16.414062 27.132812 16.3125 27.171875 16.292969 27.234375 C 16.265625 27.292969 16.167969 27.332031 16.058594 27.332031 C 15.945312 27.332031 15.847656 27.375 15.828125 27.433594 C 15.800781 27.488281 15.71875 27.535156 15.632812 27.535156 C 15.554688 27.535156 15.445312 27.578125 15.398438 27.632812 C 15.351562 27.6875 15.28125 27.734375 15.234375 27.734375 C 15.1875 27.734375 15.113281 27.78125 15.066406 27.832031 C 15.019531 27.886719 14.933594 27.933594 14.867188 27.933594 C 14.800781 27.933594 14.734375 27.980469 14.707031 28.035156 C 14.6875 28.085938 14.605469 28.132812 14.535156 28.132812 C 14.460938 28.132812 14.398438 28.160156 14.398438 28.1875 C 14.398438 28.21875 14.261719 28.347656 14.085938 28.464844 C 13.707031 28.734375 13.199219 29.253906 13.199219 29.367188 C 13.199219 29.414062 13.152344 29.488281 13.101562 29.535156 C 12.960938 29.652344 12.960938 30.519531 13.101562 30.574219 C 13.152344 30.601562 13.199219 30.671875 13.199219 30.738281 C 13.199219 30.8125 13.246094 30.886719 13.300781 30.90625 C 13.351562 30.933594 13.398438 30.988281 13.398438 31.027344 C 13.398438 31.074219 13.527344 31.214844 13.679688 31.339844 C 13.828125 31.464844 14.035156 31.632812 14.125 31.714844 C 14.21875 31.800781 14.332031 31.894531 14.378906 31.933594 C 14.425781 31.964844 14.507812 32 14.566406 32 C 14.625 32 14.6875 32.046875 14.714844 32.105469 C 14.746094 32.1875 14.8125 32.207031 15.027344 32.179688 C 15.179688 32.160156 15.246094 32.160156 15.1875 32.179688 C 15.019531 32.21875 15.039062 32.328125 15.226562 32.398438 C 15.3125 32.433594 15.40625 32.492188 15.433594 32.527344 C 15.453125 32.566406 15.546875 32.601562 15.640625 32.601562 C 15.734375 32.601562 15.820312 32.648438 15.839844 32.699219 C 15.867188 32.753906 15.960938 32.800781 16.066406 32.800781 C 16.171875 32.800781 16.265625 32.847656 16.292969 32.898438 C 16.3125 32.960938 16.414062 33 16.519531 33 C 16.625 33 16.753906 33.046875 16.800781 33.101562 C 16.847656 33.152344 16.964844 33.199219 17.066406 33.199219 C 17.167969 33.199219 17.285156 33.246094 17.332031 33.300781 C 17.378906 33.351562 17.511719 33.398438 17.632812 33.398438 C 17.753906 33.398438 17.886719 33.445312 17.933594 33.5 C 17.980469 33.554688 18.125 33.601562 18.265625 33.601562 C 18.425781 33.601562 18.535156 33.632812 18.558594 33.699219 C 18.585938 33.773438 18.691406 33.800781 18.933594 33.800781 C 19.171875 33.800781 19.28125 33.828125 19.308594 33.898438 C 19.332031 33.972656 19.445312 34 19.699219 34 C 19.925781 34 20.078125 34.035156 20.132812 34.101562 C 20.1875 34.167969 20.339844 34.199219 20.601562 34.199219 C 20.859375 34.199219 21.011719 34.234375 21.066406 34.300781 C 21.125 34.375 21.28125 34.398438 21.613281 34.398438 C 21.933594 34.398438 22.105469 34.433594 22.171875 34.5 C 22.234375 34.558594 22.398438 34.601562 22.574219 34.601562 L 22.867188 34.601562 L 22.867188 33.746094 C 22.867188 33.28125 22.820312 32.601562 22.765625 32.238281 C 22.632812 31.339844 22.632812 28.660156 22.765625 27.832031 C 22.820312 27.5 22.867188 26.851562 22.867188 26.378906 L 22.867188 25.535156 L 22.578125 25.535156 C 22.421875 25.535156 22.234375 25.578125 22.160156 25.632812 Z M 20.71875 26.28125 C 20.6875 26.378906 20.332031 26.441406 20.332031 26.347656 C 20.332031 26.246094 20.414062 26.199219 20.585938 26.199219 C 20.679688 26.199219 20.734375 26.234375 20.71875 26.28125 Z M 22.460938 27.480469 C 22.460938 27.78125 22.445312 27.808594 22.394531 27.671875 C 22.332031 27.527344 22.367188 27.132812 22.441406 27.132812 C 22.453125 27.132812 22.464844 27.292969 22.460938 27.480469 Z M 22.464844 28.648438 C 22.464844 28.921875 22.445312 29.007812 22.398438 28.933594 C 22.285156 28.761719 22.320312 28.265625 22.445312 28.265625 C 22.460938 28.265625 22.464844 28.441406 22.464844 28.648438 Z M 13.507812 29.507812 C 13.488281 29.566406 13.464844 29.667969 13.464844 29.738281 C 13.464844 29.808594 13.421875 29.867188 13.367188 29.867188 C 13.246094 29.867188 13.238281 29.714844 13.347656 29.535156 C 13.445312 29.375 13.566406 29.351562 13.507812 29.507812 Z M 22.460938 30.480469 C 22.460938 31.074219 22.433594 31.378906 22.398438 31.300781 C 22.292969 31.046875 22.328125 29.535156 22.441406 29.535156 C 22.453125 29.535156 22.464844 29.960938 22.460938 30.480469 Z M 13.464844 30.378906 C 13.460938 30.613281 13.453125 30.625 13.367188 30.507812 C 13.300781 30.421875 13.292969 30.347656 13.339844 30.261719 C 13.433594 30.074219 13.464844 30.105469 13.464844 30.378906 Z M 22.464844 31.914062 C 22.464844 32.039062 22.445312 32.074219 22.398438 32.027344 C 22.359375 31.988281 22.347656 31.90625 22.375 31.847656 C 22.433594 31.6875 22.464844 31.707031 22.464844 31.914062 Z M 16.246094 32.464844 C 16.261719 32.464844 16.265625 32.492188 16.265625 32.535156 C 16.265625 32.652344 15.964844 32.605469 15.886719 32.472656 C 15.8125 32.351562 15.820312 32.347656 16.019531 32.40625 C 16.132812 32.441406 16.238281 32.464844 16.246094 32.464844 Z M 18.5 33.273438 C 18.566406 33.375 18.492188 33.421875 18.339844 33.367188 C 18.261719 33.347656 18.214844 33.292969 18.234375 33.261719 C 18.285156 33.179688 18.445312 33.1875 18.5 33.273438 Z M 22.535156 33.375 C 22.535156 33.488281 22.386719 33.464844 22.347656 33.347656 C 22.332031 33.300781 22.367188 33.265625 22.425781 33.265625 C 22.488281 33.265625 22.535156 33.3125 22.535156 33.375 Z M 22.558594 34.105469 C 22.667969 34.148438 22.714844 34.398438 22.621094 34.398438 C 22.585938 34.398438 22.480469 34.339844 22.378906 34.273438 C 22.246094 34.1875 22.214844 34.140625 22.28125 34.113281 C 22.40625 34.058594 22.441406 34.058594 22.558594 34.105469 Z M 22.558594 34.105469 "/>
</g>
</svg>
